<?xml version="1.0" encoding="utf-8"?>
<!-- Generator: Adobe Illustrator 17.0.0, SVG Export Plug-In . SVG Version: 6.00 Build 0)  -->
<!DOCTYPE svg PUBLIC "-//W3C//DTD SVG 1.1//EN" "http://www.w3.org/Graphics/SVG/1.1/DTD/svg11.dtd">
<svg version="1.1" id="Modelo_x5F_2" xmlns="http://www.w3.org/2000/svg" xmlns:xlink="http://www.w3.org/1999/xlink" x="0px"
	 y="0px" width="792px" height="273px" viewBox="0 170.5 792 273" enable-background="new 0 170.5 792 273" xml:space="preserve">
<g>
	<g>
		<g id="XMLID_1_">
			<g>
				<path d="M307.979,327.764l-0.146,22.913c-12.181,12.05-31.932,17.276-59.354,17.276c-24.509,0-42.386-5.358-54.216-14.875
					c-0.468-0.396-0.908-0.806-1.347-1.216c-2.24-2.167-4.231-4.538-6.032-6.939c-0.41-0.63-0.834-1.26-1.259-1.859
					c-0.19-0.308-0.395-0.615-0.6-0.923c-0.176-0.322-0.366-0.629-0.542-0.951c-0.381-0.63-0.747-1.26-1.098-1.874
					c-0.322-0.645-0.63-1.274-0.952-1.889c-1.259-2.504-2.196-5.008-3.001-7.351c-0.732-2.386-1.347-4.582-1.742-6.573
					c-0.117-0.498-0.22-0.981-0.322-1.435c-0.073-0.469-0.146-0.923-0.22-1.362c-0.146-0.878-0.264-1.669-0.38-2.386
					c-0.205-1.479-0.293-2.621-0.381-3.412c-0.088-0.79-0.132-1.215-0.132-1.215s-5.183,24.67,7.233,43.381
					c-11.83,3.953-25.314,5.579-38.404,5.579c-18.418,0-70.892-6.018-71.345-53.455h49.984c0,3.733,0.673,7.058,1.801,9.766
					c3.646,8.961,14.553,10.835,23.865,10.835c8.184,0,20.673-2.504,20.673-13.543c0-7.701-7.028-9.78-34.992-17.057
					c-25.666-6.647-54.977-13.118-54.977-43.074c0-34.348,32.035-49.121,65.431-49.121c35.211,0,66.338,12.298,67.715,48.506
					h-47.261c0.908-5.637-1.83-9.371-5.915-11.889c-4.085-2.694-9.766-3.719-14.758-3.719c-6.823,0-17.95,1.654-17.95,9.97
					c0.908,10.615,24.07,12.914,47.027,18.726c18.726,4.758,37.32,12.167,43.513,29.545h12.913v9.048
					c0,12.108,0,23.338,16.295,23.338c15.739,0,14.641-15.183,14.641-22.254V207.004h43.132c-0.044,0.044-0.088,0.103-0.117,0.146
					c-6.603,9.121-11.668,19.136-14.904,29.516c-0.117,0.352-0.22,0.703-0.322,1.054l-0.307,1.01
					c-2.094,7.672-3.28,15.578-3.543,23.499c-0.029,0.849-0.044,1.684-0.044,2.503v1.098c0,17.276,4.334,34.333,12.562,49.296
					C299.399,317.368,303.323,322.244,307.979,327.764z"/>
				
					<linearGradient id="SVGID_1_" gradientUnits="userSpaceOnUse" x1="300.146" y1="360.697" x2="477.785" y2="360.697" gradientTransform="matrix(1 0 0 -1 0 613)">
					<stop  offset="0" style="stop-color:#009BDB"/>
					<stop  offset="1" style="stop-color:#0096CB"/>
				</linearGradient>
				<path fill="url(#SVGID_1_)" d="M477.785,264.734v1.098c0,18.257-5.52,35.226-14.992,49.296
					c-2.167,3.236-4.539,6.296-7.087,9.194c-0.073,0.088-0.117,0.117-0.205,0.19c-0.059,0.073-0.103,0.117-0.176,0.19
					c-0.453,0.513-0.937,1.025-1.405,1.552c-8.55-0.219-17.364-1.186-27.262-4.216c-3.294-0.996-6.69-2.24-10.233-3.748
					c-18.932-8.097-34.011-21.889-31.596-40.043c2.182-16.354,24.085-17.643,33.089-5.754c1.962,2.591,3.323,5.813,3.719,9.663
					c1.112-10.703-1.288-20.131-6.838-27.276c-10.775-13.923-33.425-19.165-65.093-8.111c-21.493,7.511-29.794,10.468-49.56,16.149
					c0.205-7.042,1.259-13.865,3.031-20.38c0.029-0.073,0.044-0.117,0.059-0.176c3.851-13.191,11.01-25.299,20.249-35.343
					c0.527-0.585,1.069-1.171,1.654-1.757c3.792-3.924,7.921-7.496,12.24-10.673c0.718-0.557,1.464-1.054,2.196-1.508
					c0.571-0.41,1.157-0.805,1.728-1.171c11.728-7.687,25.007-12.533,38.316-13.367c0.205-0.044,0.424-0.059,0.6-0.059
					c1.215-0.088,4.026-0.103,7.042-0.132h3.367c3.016,0.029,5.798,0.073,7.027,0.132c0.19,0,0.396,0.015,0.601,0.059
					c1.04,0.059,2.094,0.161,3.133,0.263c12.255,1.347,24.363,6.018,35.183,13.104c0.571,0.366,1.157,0.761,1.728,1.171
					c0.732,0.454,1.464,0.952,2.196,1.508c0.396,0.308,0.806,0.6,1.2,0.908c3.88,2.943,7.6,6.223,11.04,9.766
					c0.585,0.585,1.112,1.171,1.654,1.757c9.224,10.044,16.397,22.152,20.248,35.343c0.015,0.059,0.029,0.103,0.059,0.176
					C476.613,249.625,477.683,257.047,477.785,264.734z"/>
				
					<linearGradient id="SVGID_2_" gradientUnits="userSpaceOnUse" x1="310.877" y1="242.067" x2="436.043" y2="242.067" gradientTransform="matrix(1 0 0 -1 0 613)">
					<stop  offset="0" style="stop-color:#009BDB"/>
					<stop  offset="1" style="stop-color:#0096CB"/>
				</linearGradient>
				<path fill="url(#SVGID_2_)" d="M390.642,430.47c-0.571,2.123-0.922,3.178-1.289,3.178h-0.834c-0.351,0-0.703-1.055-1.303-3.178
					c-1.142-4.261-4.422-12.4-5.71-16.295c-10.717-32.225-25.9-53.557-40.966-71.331c-0.937-1.172-26.5-28.828-29.663-34.626
					c50.277,7.335,83.19,29.545,119.573,35.387c1.859,0.293,3.719,0.557,5.593,0.762c-1.493,1.786-2.986,3.616-4.479,5.476v0.015
					c-13.089,16.398-25.842,36.207-35.197,64.318C395.078,418.069,391.798,426.209,390.642,430.47z"/>
				<path d="M464.55,336.035c0.38-0.395,0.775-0.834,1.142-1.273c0.059-0.029,0.059-0.044,0.103-0.088
					c0.132-0.117,0.249-0.249,0.381-0.381l5.476,30.98h-33.748c3.09-4.144,6.164-7.965,9.151-11.537
					c0.249-0.278,0.497-0.571,0.717-0.863l0.791-0.908c0.308-0.352,1.918-2.108,8.346-8.506
					C459.557,341.131,462.134,338.642,464.55,336.035z"/>
				<path d="M711.455,255.496h-47.261c0.907-5.623-1.815-9.356-5.915-11.859c-4.085-2.708-9.766-3.748-14.772-3.748
					c-6.809,0-17.936,1.669-17.936,9.985c0.907,10.615,24.084,12.914,47.026,18.726c22.957,5.842,45.666,15.607,45.666,42.869
					c0,38.711-38.857,51.2-74.977,51.2c-13.382,0-44.802-3.192-61.112-23.206c11.801-7.818,19.956-18.053,24.671-30.278h15.095
					c0,3.748,0.688,7.072,1.801,9.78c3.646,8.946,14.553,10.835,23.879,10.835c8.17,0,20.659-2.504,20.659-13.543
					c0-7.701-7.043-9.78-34.992-17.057c-7.394-1.918-15.109-3.821-22.313-6.295c1.362-10,0.967-20.922-1.098-32.62
					c-2.504-14.158-7.306-27.818-14.875-39.106c12.444-9.707,30.395-14.172,48.739-14.172
					C678.952,207.004,710.079,219.273,711.455,255.496z"/>
				<path d="M568.969,265.905c3.339,18.901,3.207,51.199-35.416,58.008l-24.246,4.274l-17.306-98.124l19.751-3.484
					C556.583,218.673,566.758,253.226,568.969,265.905z"/>
			</g>
		</g>
	</g>
</g>
</svg>
